# xmcd CD database file
#
# Track frame offsets:
#	182
#	19002
#	39400
#	49225
#	64240
#	77405
#	90300
#	101710
#	115035
#	129780
#	141765
#	156610
#	171115
#	183735
#	197065
#	215350
#	227422
#	244992
#	261372
#	275935
#	294660
#	312470
#
# Disc length: 4443 seconds
#
# Revision: 8
# Processed by: cddbd v1.5.2PL0 Copyright (c) Steve Scherf et al.
# Submitted via: CdAid (MTCDDB.DLL V2003.12.21)
#
DISCID=3e115916,43115916
DTITLE=Dr. John - The Dr. John Anthology - Mos' Scocious (Disc-2)
DYEAR=1993
DGENRE=R&B
TTITLE0=Iko Iko
TTITLE1=Junko Partner
TTITLE2=Tipitina
TTITLE3=Huey Smith Medley: a. High Blood Pressure - b. Don't You Just Know It 
TTITLE3=/ c. Well I'll Be John Brown
TTITLE4=Right Place Wrong Time
TTITLE5=Traveling Mood
TTITLE6=Life
TTITLE7=Such A Night
TTITLE8=I Been Hoodood
TTITLE9=Cold Cold Cold
TTITLE10=Quitters Never Win
TTITLE11=What Comes Around (Goes Around)
TTITLE12=Mos' Scocious
TTITLE13=Let's Make A Better World
TTITLE14=Back By The River
TTITLE15=I Wanna Rock
TTITLE16=Memories Of Prof. Longhair
TTITLE17=Honey Dripper
TTITLE18=Pretty Libby
TTITLE19=Makin' Whoopee!
TTITLE20=Accentuate The Positive
TTITLE21=More Than You Know
EXTD=The Dr. John Anthology\nMos' Scocious [CD2]\n\nRHINO ID3G:  14 YEAR: 1
EXTD=993
EXTT0=
EXTT1=
EXTT2=
EXTT3=
EXTT4=
EXTT5=
EXTT6=
EXTT7=
EXTT8=
EXTT9=
EXTT10=
EXTT11=
EXTT12=
EXTT13=
EXTT14=
EXTT15=
EXTT16=
EXTT17=
EXTT18=
EXTT19=
EXTT20=
EXTT21=
PLAYORDER=
